<?xml version="1.0" encoding="utf-8"?>
<!-- Generator: Adobe Illustrator 22.1.0, SVG Export Plug-In . SVG Version: 6.00 Build 0)  -->
<svg version="1.1" id="Layer_1" xmlns="http://www.w3.org/2000/svg" xmlns:xlink="http://www.w3.org/1999/xlink" x="0px" y="0px"
	 viewBox="0 0 46.4 44.7" style="enable-background:new 0 0 46.4 44.7;" xml:space="preserve">
<style type="text/css">
	.st0{fill:none;stroke:#FFFFFF;stroke-width:3;stroke-linecap:round;stroke-linejoin:round;}
</style>
<title>cog</title>
<g>
	<path class="st0" d="M37.6,14c-0.5-0.8-1-1.6-1.6-2.3l1.9-4.3c0.3-0.7,0-1.6-0.7-2l-6.3-3.7c-0.7-0.4-1.6-0.2-2.1,0.4L26,6
		c-1.9-0.3-3.8-0.3-5.7,0l-2.8-3.8c-0.5-0.7-1.4-0.8-2.1-0.4L9.2,5.4c-0.7,0.4-1,1.3-0.7,2l1.9,4.3c-1.2,1.5-2.2,3.1-2.8,4.9
		l-4.7,0.5c-0.8,0.1-1.4,0.8-1.4,1.6V26c0,0.8,0.6,1.5,1.4,1.6l4.7,0.5c0.7,1.8,1.6,3.4,2.8,4.9l-1.9,4.3c-0.3,0.7,0,1.6,0.7,2
		l6.4,3.7c0.7,0.4,1.6,0.2,2.1-0.4l2.8-3.8c1.9,0.3,3.8,0.3,5.7,0l2.8,3.8c0.5,0.7,1.4,0.8,2.1,0.4l6.4-3.7c0.7-0.4,1-1.3,0.7-2
		L36,33c1.2-1.5,2.2-3.1,2.8-4.9l4.7-0.5c0.8-0.1,1.4-0.8,1.4-1.6v-7.4c0-0.8-0.6-1.5-1.4-1.6l-4.7-0.5C38.5,15.7,38.1,14.9,37.6,14
		z"/>
	<circle class="st0" cx="23.4" cy="22.5" r="9.1"/>
</g>
</svg>
